<svg xmlns="http://www.w3.org/2000/svg" xmlns:xlink="http://www.w3.org/1999/xlink" width="5000" zoomAndPan="magnify" viewBox="0 0 3750 3749.999967" height="5000" preserveAspectRatio="xMidYMid meet" version="1.0"><defs><filter x="0%" y="0%" width="100%" height="100%" id="db17642a6d"><feColorMatrix values="0 0 0 0 1 0 0 0 0 1 0 0 0 0 1 0 0 0 1 0" color-interpolation-filters="sRGB"/></filter><g/><mask id="7df0c420bd"><g filter="url(#db17642a6d)"><rect x="-375" width="4500" fill="#000000" y="-374.999997" height="4499.99996" fill-opacity="0.95"/></g></mask><clipPath id="8ab31c58d1"><path d="M 1.027344 0.722656 L 587.675781 0.722656 L 587.675781 587.371094 L 1.027344 587.371094 Z M 1.027344 0.722656 " clip-rule="nonzero"/></clipPath><clipPath id="1af74e30c9"><path d="M 294.351562 0.722656 C 132.351562 0.722656 1.027344 132.050781 1.027344 294.046875 C 1.027344 456.046875 132.351562 587.371094 294.351562 587.371094 C 456.351562 587.371094 587.675781 456.046875 587.675781 294.046875 C 587.675781 132.050781 456.351562 0.722656 294.351562 0.722656 Z M 294.351562 0.722656 " clip-rule="nonzero"/></clipPath><clipPath id="40c138a120"><path d="M 0.0273438 0.722656 L 586.675781 0.722656 L 586.675781 587.371094 L 0.0273438 587.371094 Z M 0.0273438 0.722656 " clip-rule="nonzero"/></clipPath><clipPath id="db646a8c84"><path d="M 293.351562 0.722656 C 131.351562 0.722656 0.0273438 132.050781 0.0273438 294.046875 C 0.0273438 456.046875 131.351562 587.371094 293.351562 587.371094 C 455.351562 587.371094 586.675781 456.046875 586.675781 294.046875 C 586.675781 132.050781 455.351562 0.722656 293.351562 0.722656 Z M 293.351562 0.722656 " clip-rule="nonzero"/></clipPath><clipPath id="111a162ec2"><rect x="0" width="587" y="0" height="588"/></clipPath><clipPath id="da0eb3cee1"><rect x="0" width="588" y="0" height="588"/></clipPath><mask id="49635c1eaa"><g filter="url(#db17642a6d)"><rect x="-375" width="4500" fill="#000000" y="-374.999997" height="4499.99996" fill-opacity="0.95"/></g></mask><clipPath id="02ce0e9a3c"><path d="M 0.878906 0.722656 L 587.527344 0.722656 L 587.527344 587.371094 L 0.878906 587.371094 Z M 0.878906 0.722656 " clip-rule="nonzero"/></clipPath><clipPath id="98a9e76f3b"><path d="M 294.203125 0.722656 C 132.203125 0.722656 0.878906 132.050781 0.878906 294.046875 C 0.878906 456.046875 132.203125 587.371094 294.203125 587.371094 C 456.199219 587.371094 587.527344 456.046875 587.527344 294.046875 C 587.527344 132.050781 456.199219 0.722656 294.203125 0.722656 Z M 294.203125 0.722656 " clip-rule="nonzero"/></clipPath><clipPath id="e4db5d97c8"><path d="M 0.878906 0.722656 L 587.527344 0.722656 L 587.527344 587.371094 L 0.878906 587.371094 Z M 0.878906 0.722656 " clip-rule="nonzero"/></clipPath><clipPath id="4d5393b8ae"><path d="M 294.203125 0.722656 C 132.203125 0.722656 0.878906 132.050781 0.878906 294.046875 C 0.878906 456.046875 132.203125 587.371094 294.203125 587.371094 C 456.199219 587.371094 587.527344 456.046875 587.527344 294.046875 C 587.527344 132.050781 456.199219 0.722656 294.203125 0.722656 Z M 294.203125 0.722656 " clip-rule="nonzero"/></clipPath><clipPath id="94389f9491"><rect x="0" width="588" y="0" height="588"/></clipPath><clipPath id="1abc0fe3fa"><rect x="0" width="588" y="0" height="588"/></clipPath><mask id="9f613d8cf0"><g filter="url(#db17642a6d)"><rect x="-375" width="4500" fill="#000000" y="-374.999997" height="4499.99996" fill-opacity="0.95"/></g></mask><clipPath id="3c073a0b14"><path d="M 0.238281 0.722656 L 586.886719 0.722656 L 586.886719 587.371094 L 0.238281 587.371094 Z M 0.238281 0.722656 " clip-rule="nonzero"/></clipPath><clipPath id="0fd96d7b5c"><path d="M 293.5625 0.722656 C 131.5625 0.722656 0.238281 132.050781 0.238281 294.046875 C 0.238281 456.046875 131.5625 587.371094 293.5625 587.371094 C 455.558594 587.371094 586.886719 456.046875 586.886719 294.046875 C 586.886719 132.050781 455.558594 0.722656 293.5625 0.722656 Z M 293.5625 0.722656 " clip-rule="nonzero"/></clipPath><clipPath id="cfc27d4a9b"><path d="M 0.238281 0.722656 L 586.886719 0.722656 L 586.886719 587.371094 L 0.238281 587.371094 Z M 0.238281 0.722656 " clip-rule="nonzero"/></clipPath><clipPath id="c6bfcd4436"><path d="M 293.5625 0.722656 C 131.5625 0.722656 0.238281 132.050781 0.238281 294.046875 C 0.238281 456.046875 131.5625 587.371094 293.5625 587.371094 C 455.558594 587.371094 586.886719 456.046875 586.886719 294.046875 C 586.886719 132.050781 455.558594 0.722656 293.5625 0.722656 Z M 293.5625 0.722656 " clip-rule="nonzero"/></clipPath><clipPath id="13e288466a"><rect x="0" width="587" y="0" height="588"/></clipPath><clipPath id="4a5d6b09da"><rect x="0" width="587" y="0" height="588"/></clipPath><clipPath id="3e065bb1c2"><path d="M 1206.136719 1439.722656 L 1792.785156 1439.722656 L 1792.785156 2026.371094 L 1206.136719 2026.371094 Z M 1206.136719 1439.722656 " clip-rule="nonzero"/></clipPath><clipPath id="2cb6ec193d"><path d="M 1499.460938 1439.722656 C 1337.464844 1439.722656 1206.136719 1571.050781 1206.136719 1733.046875 C 1206.136719 1895.046875 1337.464844 2026.371094 1499.460938 2026.371094 C 1661.460938 2026.371094 1792.785156 1895.046875 1792.785156 1733.046875 C 1792.785156 1571.050781 1661.460938 1439.722656 1499.460938 1439.722656 Z M 1499.460938 1439.722656 " clip-rule="nonzero"/></clipPath><clipPath id="9eb2fee166"><path d="M 0.136719 0.722656 L 586.785156 0.722656 L 586.785156 587.371094 L 0.136719 587.371094 Z M 0.136719 0.722656 " clip-rule="nonzero"/></clipPath><clipPath id="62cc73b392"><path d="M 293.460938 0.722656 C 131.464844 0.722656 0.136719 132.050781 0.136719 294.046875 C 0.136719 456.046875 131.464844 587.371094 293.460938 587.371094 C 455.460938 587.371094 586.785156 456.046875 586.785156 294.046875 C 586.785156 132.050781 455.460938 0.722656 293.460938 0.722656 Z M 293.460938 0.722656 " clip-rule="nonzero"/></clipPath><clipPath id="dbc2c4e8f5"><rect x="0" width="587" y="0" height="588"/></clipPath><clipPath id="6f71d82109"><path d="M 1288.351562 1439.722656 L 1875 1439.722656 L 1875 2026.371094 L 1288.351562 2026.371094 Z M 1288.351562 1439.722656 " clip-rule="nonzero"/></clipPath><clipPath id="976cb4fd83"><path d="M 1581.675781 1439.722656 C 1419.675781 1439.722656 1288.351562 1571.050781 1288.351562 1733.046875 C 1288.351562 1895.046875 1419.675781 2026.371094 1581.675781 2026.371094 C 1743.675781 2026.371094 1875 1895.046875 1875 1733.046875 C 1875 1571.050781 1743.675781 1439.722656 1581.675781 1439.722656 Z M 1581.675781 1439.722656 " clip-rule="nonzero"/></clipPath><clipPath id="99f86bbe1b"><path d="M 0.351562 0.722656 L 587 0.722656 L 587 587.371094 L 0.351562 587.371094 Z M 0.351562 0.722656 " clip-rule="nonzero"/></clipPath><clipPath id="0a6e39d776"><path d="M 293.675781 0.722656 C 131.675781 0.722656 0.351562 132.050781 0.351562 294.046875 C 0.351562 456.046875 131.675781 587.371094 293.675781 587.371094 C 455.675781 587.371094 587 456.046875 587 294.046875 C 587 132.050781 455.675781 0.722656 293.675781 0.722656 Z M 293.675781 0.722656 " clip-rule="nonzero"/></clipPath><clipPath id="6ebfae6d1c"><rect x="0" width="587" y="0" height="588"/></clipPath><clipPath id="af6fde79e4"><rect x="0" width="2646" y="0" height="604"/></clipPath></defs><g mask="url(#7df0c420bd)"><g transform="matrix(1, 0, 0, 1, 994, 1439)"><g clip-path="url(#da0eb3cee1)"><g clip-path="url(#8ab31c58d1)"><g clip-path="url(#1af74e30c9)"><g transform="matrix(1, 0, 0, 1, 1, 0)"><g clip-path="url(#111a162ec2)"><g clip-path="url(#40c138a120)"><g clip-path="url(#db646a8c84)"><path fill="#6b5a8e" d="M 0.0273438 0.722656 L 586.675781 0.722656 L 586.675781 587.371094 L 0.0273438 587.371094 Z M 0.0273438 0.722656 " fill-opacity="1" fill-rule="nonzero"/></g></g></g></g></g></g></g></g></g><g mask="url(#49635c1eaa)"><g transform="matrix(1, 0, 0, 1, 1046, 1439)"><g clip-path="url(#1abc0fe3fa)"><g clip-path="url(#02ce0e9a3c)"><g clip-path="url(#98a9e76f3b)"><g transform="matrix(1, 0, 0, 1, -0.000000000000227374, 0)"><g clip-path="url(#94389f9491)"><g clip-path="url(#e4db5d97c8)"><g clip-path="url(#4d5393b8ae)"><path fill="#e5b94e" d="M 0.878906 0.722656 L 587.527344 0.722656 L 587.527344 587.371094 L 0.878906 587.371094 Z M 0.878906 0.722656 " fill-opacity="1" fill-rule="nonzero"/></g></g></g></g></g></g></g></g></g><g mask="url(#9f613d8cf0)"><g transform="matrix(1, 0, 0, 1, 1113, 1439)"><g clip-path="url(#4a5d6b09da)"><g clip-path="url(#3c073a0b14)"><g clip-path="url(#0fd96d7b5c)"><g transform="matrix(1, 0, 0, 1, -0.000000000000227374, 0)"><g clip-path="url(#13e288466a)"><g clip-path="url(#cfc27d4a9b)"><g clip-path="url(#c6bfcd4436)"><path fill="#17324d" d="M 0.238281 0.722656 L 586.886719 0.722656 L 586.886719 587.371094 L 0.238281 587.371094 Z M 0.238281 0.722656 " fill-opacity="1" fill-rule="nonzero"/></g></g></g></g></g></g></g></g></g><g clip-path="url(#3e065bb1c2)"><g clip-path="url(#2cb6ec193d)"><g transform="matrix(1, 0, 0, 1, 1206, 1439)"><g clip-path="url(#dbc2c4e8f5)"><g clip-path="url(#9eb2fee166)"><g clip-path="url(#62cc73b392)"><path fill="#6f8f72" d="M 0.136719 0.722656 L 586.785156 0.722656 L 586.785156 587.371094 L 0.136719 587.371094 Z M 0.136719 0.722656 " fill-opacity="1" fill-rule="nonzero"/></g></g></g></g></g></g><g clip-path="url(#6f71d82109)"><g clip-path="url(#976cb4fd83)"><g transform="matrix(1, 0, 0, 1, 1288, 1439)"><g clip-path="url(#6ebfae6d1c)"><g clip-path="url(#99f86bbe1b)"><g clip-path="url(#0a6e39d776)"><path fill="#b85c38" d="M 0.351562 0.722656 L 587 0.722656 L 587 587.371094 L 0.351562 587.371094 Z M 0.351562 0.722656 " fill-opacity="1" fill-rule="nonzero"/></g></g></g></g></g></g><g transform="matrix(1, 0, 0, 1, 540, 1431)"><g clip-path="url(#af6fde79e4)"><g fill="#f4efe6" fill-opacity="1"><g transform="translate(-14.177653, 473.860011)"><g><path d="M 323.953125 -85.875 C 323.953125 -75.113281 320.929688 -64.1875 314.890625 -53.09375 C 308.859375 -42 300.09375 -31.757812 288.59375 -22.375 C 277.09375 -13 263.101562 -5.457031 246.625 0.25 C 230.15625 5.957031 211.476562 8.8125 190.59375 8.8125 C 164.5 8.8125 141.09375 4.445312 120.375 -4.28125 C 99.664062 -13.007812 81.96875 -25.320312 67.28125 -41.21875 C 52.601562 -57.125 41.390625 -75.925781 33.640625 -97.625 C 25.890625 -119.320312 22.015625 -143.132812 22.015625 -169.0625 C 22.015625 -195.320312 26.050781 -219.503906 34.125 -241.609375 C 42.207031 -263.710938 53.546875 -282.921875 68.140625 -299.234375 C 82.742188 -315.546875 99.910156 -328.1875 119.640625 -337.15625 C 139.378906 -346.125 160.832031 -350.609375 184 -350.609375 C 196.71875 -350.609375 207.644531 -349.546875 216.78125 -347.421875 C 225.914062 -345.304688 233.539062 -342.863281 239.65625 -340.09375 C 245.769531 -337.320312 250.785156 -334.875 254.703125 -332.75 C 258.617188 -330.632812 261.71875 -329.578125 264 -329.578125 C 266.9375 -329.578125 269.21875 -330.472656 270.84375 -332.265625 C 272.476562 -334.054688 273.863281 -336.09375 275 -338.375 C 276.144531 -340.664062 277.535156 -342.707031 279.171875 -344.5 C 280.804688 -346.289062 283.085938 -347.1875 286.015625 -347.1875 C 288.304688 -347.1875 290.265625 -346.492188 291.890625 -345.109375 C 293.523438 -343.722656 294.910156 -341.15625 296.046875 -337.40625 L 322.234375 -254.453125 C 323.210938 -251.191406 322.925781 -248.296875 321.375 -245.765625 C 319.820312 -243.242188 317.414062 -241.738281 314.15625 -241.25 C 311.0625 -240.59375 308.25 -240.957031 305.71875 -242.34375 C 303.1875 -243.726562 301.269531 -245.972656 299.96875 -249.078125 C 290.832031 -268.484375 280.800781 -284.054688 269.875 -295.796875 C 258.945312 -307.546875 246.875 -316.070312 233.65625 -321.375 C 220.445312 -326.675781 205.847656 -329.328125 189.859375 -329.328125 C 174.035156 -329.328125 159.394531 -325.859375 145.9375 -318.921875 C 132.488281 -311.992188 120.785156 -302.046875 110.828125 -289.078125 C 100.878906 -276.109375 93.171875 -260.570312 87.703125 -242.46875 C 82.242188 -224.363281 79.515625 -204.21875 79.515625 -182.03125 C 79.515625 -156.914062 82.695312 -134.53125 89.0625 -114.875 C 95.425781 -95.21875 104.351562 -78.617188 115.84375 -65.078125 C 127.34375 -51.546875 140.800781 -41.269531 156.21875 -34.25 C 171.632812 -27.238281 188.394531 -23.734375 206.5 -23.734375 C 230.476562 -23.734375 250.988281 -29.238281 268.03125 -40.25 C 285.082031 -51.257812 298.007812 -66.550781 306.8125 -86.125 C 308.28125 -89.21875 309.953125 -91.335938 311.828125 -92.484375 C 313.703125 -93.628906 315.703125 -94.035156 317.828125 -93.703125 C 321.910156 -93.210938 323.953125 -90.601562 323.953125 -85.875 Z M 323.953125 -85.875 "/></g></g></g><g fill="#f4efe6" fill-opacity="1"><g transform="translate(259.125407, 473.860011)"><g><path d="M 25.203125 -50.890625 C 25.203125 -63.941406 29.113281 -75.441406 36.9375 -85.390625 C 44.769531 -95.335938 56.023438 -103.125 70.703125 -108.75 C 85.390625 -114.382812 102.925781 -117.203125 123.3125 -117.203125 C 131.957031 -117.203125 140.03125 -116.585938 147.53125 -115.359375 C 155.039062 -114.140625 161.894531 -112.46875 168.09375 -110.34375 L 168.09375 -176.40625 C 168.09375 -190.4375 164.539062 -201.203125 157.4375 -208.703125 C 150.34375 -216.203125 140.273438 -219.953125 127.234375 -219.953125 C 114.835938 -219.953125 105.539062 -217.425781 99.34375 -212.375 C 93.144531 -207.320312 90.046875 -201.207031 90.046875 -194.03125 L 90.046875 -174.703125 C 90.046875 -166.867188 87.472656 -160.832031 82.328125 -156.59375 C 77.191406 -152.351562 70.054688 -150.234375 60.921875 -150.234375 C 52.929688 -150.234375 46.816406 -152.269531 42.578125 -156.34375 C 38.335938 -160.425781 36.21875 -165.972656 36.21875 -172.984375 C 36.21875 -180.484375 38.457031 -187.90625 42.9375 -195.25 C 47.425781 -202.59375 53.953125 -209.28125 62.515625 -215.3125 C 71.078125 -221.34375 81.597656 -226.148438 94.078125 -229.734375 C 106.554688 -233.328125 120.867188 -235.125 137.015625 -235.125 C 164.742188 -235.125 185.414062 -229.171875 199.03125 -217.265625 C 212.65625 -205.359375 219.46875 -189.289062 219.46875 -169.0625 L 219.46875 -36.703125 C 219.46875 -26.585938 223.300781 -21.53125 230.96875 -21.53125 C 235.050781 -21.53125 237.945312 -22.46875 239.65625 -24.34375 C 241.363281 -26.21875 242.875 -28.050781 244.1875 -29.84375 C 245 -30.820312 245.851562 -31.675781 246.75 -32.40625 C 247.644531 -33.144531 248.742188 -33.515625 250.046875 -33.515625 C 253.472656 -33.515625 255.1875 -31.234375 255.1875 -26.671875 C 255.1875 -21.941406 253.597656 -17.085938 250.421875 -12.109375 C 247.242188 -7.140625 242.515625 -2.941406 236.234375 0.484375 C 229.953125 3.910156 222.160156 5.625 212.859375 5.625 C 201.117188 5.625 191.617188 3.054688 184.359375 -2.078125 C 177.097656 -7.210938 172.898438 -14.757812 171.765625 -24.71875 C 161.972656 -14.925781 150.429688 -7.421875 137.140625 -2.203125 C 123.847656 3.015625 109.941406 5.625 95.421875 5.625 C 81.554688 5.625 69.363281 3.300781 58.84375 -1.34375 C 48.320312 -5.988281 40.082031 -12.550781 34.125 -21.03125 C 28.175781 -29.519531 25.203125 -39.472656 25.203125 -50.890625 Z M 78.78125 -59.453125 C 78.78125 -46.398438 82.53125 -36.367188 90.03125 -29.359375 C 97.539062 -22.347656 107.003906 -18.84375 118.421875 -18.84375 C 137.335938 -18.84375 153.894531 -25.53125 168.09375 -38.90625 L 168.09375 -95.171875 C 162.382812 -97.460938 156.46875 -99.257812 150.34375 -100.5625 C 144.226562 -101.863281 137.582031 -102.515625 130.40625 -102.515625 C 114.257812 -102.515625 101.617188 -98.679688 92.484375 -91.015625 C 83.347656 -83.347656 78.78125 -72.828125 78.78125 -59.453125 Z M 78.78125 -59.453125 "/></g></g></g><g fill="#f4efe6" fill-opacity="1"><g transform="translate(457.557627, 473.860011)"><g><path d="M 108.390625 -216.78125 C 96.160156 -216.78125 86.492188 -213.640625 79.390625 -207.359375 C 72.296875 -201.078125 68.75 -192.878906 68.75 -182.765625 C 68.75 -176.566406 70.21875 -170.9375 73.15625 -165.875 C 76.09375 -160.820312 81.394531 -156.21875 89.0625 -152.0625 C 96.726562 -147.90625 107.65625 -144.03125 121.84375 -140.4375 C 144.675781 -135.382812 162.453125 -129.066406 175.171875 -121.484375 C 187.898438 -113.898438 196.875 -105.253906 202.09375 -95.546875 C 207.3125 -85.835938 209.921875 -75.113281 209.921875 -63.375 C 209.921875 -49.664062 206.578125 -37.632812 199.890625 -27.28125 C 193.203125 -16.925781 183.457031 -8.851562 170.65625 -3.0625 C 157.851562 2.726562 142.15625 5.625 123.5625 5.625 C 113.445312 5.625 105.085938 4.726562 98.484375 2.9375 C 91.878906 1.144531 86.375 -0.644531 81.96875 -2.4375 C 77.5625 -4.238281 73.644531 -5.140625 70.21875 -5.140625 C 66.957031 -5.140625 64.425781 -4.238281 62.625 -2.4375 C 60.832031 -0.644531 59.117188 1.1875 57.484375 3.0625 C 55.859375 4.9375 53.578125 5.875 50.640625 5.875 C 48.359375 5.875 46.566406 5.179688 45.265625 3.796875 C 43.960938 2.410156 42.738281 -0.078125 41.59375 -3.671875 L 23.484375 -54.8125 C 22.015625 -59.375 21.566406 -63.160156 22.140625 -66.171875 C 22.710938 -69.191406 24.546875 -71.273438 27.640625 -72.421875 C 33.359375 -74.378906 38.171875 -72.175781 42.078125 -65.8125 C 49.253906 -52.4375 57.039062 -41.875 65.4375 -34.125 C 73.84375 -26.382812 82.691406 -20.878906 91.984375 -17.609375 C 101.285156 -14.347656 110.914062 -12.71875 120.875 -12.71875 C 136.363281 -12.71875 147.984375 -15.976562 155.734375 -22.5 C 163.484375 -29.03125 167.359375 -37.675781 167.359375 -48.4375 C 167.359375 -54.96875 165.722656 -60.882812 162.453125 -66.1875 C 159.191406 -71.488281 153.238281 -76.378906 144.59375 -80.859375 C 135.957031 -85.347656 123.644531 -89.550781 107.65625 -93.46875 C 87.757812 -98.195312 71.894531 -103.984375 60.0625 -110.828125 C 48.238281 -117.679688 39.753906 -125.921875 34.609375 -135.546875 C 29.472656 -145.171875 26.90625 -156.34375 26.90625 -169.0625 C 26.90625 -182.113281 30.164062 -193.613281 36.6875 -203.5625 C 43.21875 -213.507812 52.4375 -221.296875 64.34375 -226.921875 C 76.25 -232.554688 90.195312 -235.375 106.1875 -235.375 C 116.46875 -235.375 124.828125 -234.394531 131.265625 -232.4375 C 137.710938 -230.476562 143.015625 -228.476562 147.171875 -226.4375 C 151.328125 -224.40625 155.035156 -223.390625 158.296875 -223.390625 C 161.890625 -223.390625 164.664062 -224.40625 166.625 -226.4375 C 168.582031 -228.476562 170.375 -230.476562 172 -232.4375 C 173.632812 -234.394531 175.835938 -235.375 178.609375 -235.375 C 180.566406 -235.375 182.238281 -234.679688 183.625 -233.296875 C 185.007812 -231.910156 186.03125 -229.585938 186.6875 -226.328125 L 200.625 -177.625 C 201.9375 -172.570312 202.382812 -168.492188 201.96875 -165.390625 C 201.5625 -162.296875 199.726562 -160.097656 196.46875 -158.796875 C 193.53125 -157.648438 190.878906 -157.851562 188.515625 -159.40625 C 186.148438 -160.957031 183.828125 -163.769531 181.546875 -167.84375 C 172.242188 -185.457031 161.148438 -198.015625 148.265625 -205.515625 C 135.378906 -213.023438 122.085938 -216.78125 108.390625 -216.78125 Z M 108.390625 -216.78125 "/></g></g></g><g fill="#f4efe6" fill-opacity="1"><g transform="translate(619.533167, 473.860011)"><g><path d="M 25.203125 -50.890625 C 25.203125 -63.941406 29.113281 -75.441406 36.9375 -85.390625 C 44.769531 -95.335938 56.023438 -103.125 70.703125 -108.75 C 85.390625 -114.382812 102.925781 -117.203125 123.3125 -117.203125 C 131.957031 -117.203125 140.03125 -116.585938 147.53125 -115.359375 C 155.039062 -114.140625 161.894531 -112.46875 168.09375 -110.34375 L 168.09375 -176.40625 C 168.09375 -190.4375 164.539062 -201.203125 157.4375 -208.703125 C 150.34375 -216.203125 140.273438 -219.953125 127.234375 -219.953125 C 114.835938 -219.953125 105.539062 -217.425781 99.34375 -212.375 C 93.144531 -207.320312 90.046875 -201.207031 90.046875 -194.03125 L 90.046875 -174.703125 C 90.046875 -166.867188 87.472656 -160.832031 82.328125 -156.59375 C 77.191406 -152.351562 70.054688 -150.234375 60.921875 -150.234375 C 52.929688 -150.234375 46.816406 -152.269531 42.578125 -156.34375 C 38.335938 -160.425781 36.21875 -165.972656 36.21875 -172.984375 C 36.21875 -180.484375 38.457031 -187.90625 42.9375 -195.25 C 47.425781 -202.59375 53.953125 -209.28125 62.515625 -215.3125 C 71.078125 -221.34375 81.597656 -226.148438 94.078125 -229.734375 C 106.554688 -233.328125 120.867188 -235.125 137.015625 -235.125 C 164.742188 -235.125 185.414062 -229.171875 199.03125 -217.265625 C 212.65625 -205.359375 219.46875 -189.289062 219.46875 -169.0625 L 219.46875 -36.703125 C 219.46875 -26.585938 223.300781 -21.53125 230.96875 -21.53125 C 235.050781 -21.53125 237.945312 -22.46875 239.65625 -24.34375 C 241.363281 -26.21875 242.875 -28.050781 244.1875 -29.84375 C 245 -30.820312 245.851562 -31.675781 246.75 -32.40625 C 247.644531 -33.144531 248.742188 -33.515625 250.046875 -33.515625 C 253.472656 -33.515625 255.1875 -31.234375 255.1875 -26.671875 C 255.1875 -21.941406 253.597656 -17.085938 250.421875 -12.109375 C 247.242188 -7.140625 242.515625 -2.941406 236.234375 0.484375 C 229.953125 3.910156 222.160156 5.625 212.859375 5.625 C 201.117188 5.625 191.617188 3.054688 184.359375 -2.078125 C 177.097656 -7.210938 172.898438 -14.757812 171.765625 -24.71875 C 161.972656 -14.925781 150.429688 -7.421875 137.140625 -2.203125 C 123.847656 3.015625 109.941406 5.625 95.421875 5.625 C 81.554688 5.625 69.363281 3.300781 58.84375 -1.34375 C 48.320312 -5.988281 40.082031 -12.550781 34.125 -21.03125 C 28.175781 -29.519531 25.203125 -39.472656 25.203125 -50.890625 Z M 78.78125 -59.453125 C 78.78125 -46.398438 82.53125 -36.367188 90.03125 -29.359375 C 97.539062 -22.347656 107.003906 -18.84375 118.421875 -18.84375 C 137.335938 -18.84375 153.894531 -25.53125 168.09375 -38.90625 L 168.09375 -95.171875 C 162.382812 -97.460938 156.46875 -99.257812 150.34375 -100.5625 C 144.226562 -101.863281 137.582031 -102.515625 130.40625 -102.515625 C 114.257812 -102.515625 101.617188 -98.679688 92.484375 -91.015625 C 83.347656 -83.347656 78.78125 -72.828125 78.78125 -59.453125 Z M 78.78125 -59.453125 "/></g></g></g><g fill="#f4efe6" fill-opacity="1"><g transform="translate(817.965387, 473.860011)"><g/></g></g><g fill="#f4efe6" fill-opacity="1"><g transform="translate(860.539152, 473.860011)"><g><path d="M 323.953125 -85.875 C 323.953125 -75.113281 320.929688 -64.1875 314.890625 -53.09375 C 308.859375 -42 300.09375 -31.757812 288.59375 -22.375 C 277.09375 -13 263.101562 -5.457031 246.625 0.25 C 230.15625 5.957031 211.476562 8.8125 190.59375 8.8125 C 164.5 8.8125 141.09375 4.445312 120.375 -4.28125 C 99.664062 -13.007812 81.96875 -25.320312 67.28125 -41.21875 C 52.601562 -57.125 41.390625 -75.925781 33.640625 -97.625 C 25.890625 -119.320312 22.015625 -143.132812 22.015625 -169.0625 C 22.015625 -195.320312 26.050781 -219.503906 34.125 -241.609375 C 42.207031 -263.710938 53.546875 -282.921875 68.140625 -299.234375 C 82.742188 -315.546875 99.910156 -328.1875 119.640625 -337.15625 C 139.378906 -346.125 160.832031 -350.609375 184 -350.609375 C 196.71875 -350.609375 207.644531 -349.546875 216.78125 -347.421875 C 225.914062 -345.304688 233.539062 -342.863281 239.65625 -340.09375 C 245.769531 -337.320312 250.785156 -334.875 254.703125 -332.75 C 258.617188 -330.632812 261.71875 -329.578125 264 -329.578125 C 266.9375 -329.578125 269.21875 -330.472656 270.84375 -332.265625 C 272.476562 -334.054688 273.863281 -336.09375 275 -338.375 C 276.144531 -340.664062 277.535156 -342.707031 279.171875 -344.5 C 280.804688 -346.289062 283.085938 -347.1875 286.015625 -347.1875 C 288.304688 -347.1875 290.265625 -346.492188 291.890625 -345.109375 C 293.523438 -343.722656 294.910156 -341.15625 296.046875 -337.40625 L 322.234375 -254.453125 C 323.210938 -251.191406 322.925781 -248.296875 321.375 -245.765625 C 319.820312 -243.242188 317.414062 -241.738281 314.15625 -241.25 C 311.0625 -240.59375 308.25 -240.957031 305.71875 -242.34375 C 303.1875 -243.726562 301.269531 -245.972656 299.96875 -249.078125 C 290.832031 -268.484375 280.800781 -284.054688 269.875 -295.796875 C 258.945312 -307.546875 246.875 -316.070312 233.65625 -321.375 C 220.445312 -326.675781 205.847656 -329.328125 189.859375 -329.328125 C 174.035156 -329.328125 159.394531 -325.859375 145.9375 -318.921875 C 132.488281 -311.992188 120.785156 -302.046875 110.828125 -289.078125 C 100.878906 -276.109375 93.171875 -260.570312 87.703125 -242.46875 C 82.242188 -224.363281 79.515625 -204.21875 79.515625 -182.03125 C 79.515625 -156.914062 82.695312 -134.53125 89.0625 -114.875 C 95.425781 -95.21875 104.351562 -78.617188 115.84375 -65.078125 C 127.34375 -51.546875 140.800781 -41.269531 156.21875 -34.25 C 171.632812 -27.238281 188.394531 -23.734375 206.5 -23.734375 C 230.476562 -23.734375 250.988281 -29.238281 268.03125 -40.25 C 285.082031 -51.257812 298.007812 -66.550781 306.8125 -86.125 C 308.28125 -89.21875 309.953125 -91.335938 311.828125 -92.484375 C 313.703125 -93.628906 315.703125 -94.035156 317.828125 -93.703125 C 321.910156 -93.210938 323.953125 -90.601562 323.953125 -85.875 Z M 323.953125 -85.875 "/></g></g></g><g fill="#f4efe6" fill-opacity="1"><g transform="translate(1133.842256, 473.860011)"><g><path d="M 144.109375 -235.125 C 162.054688 -235.125 178.488281 -232.1875 193.40625 -226.3125 C 208.332031 -220.445312 221.21875 -212.128906 232.0625 -201.359375 C 242.914062 -190.597656 251.316406 -177.875 257.265625 -163.1875 C 263.222656 -148.507812 266.203125 -132.28125 266.203125 -114.5 C 266.203125 -97.21875 263.222656 -81.273438 257.265625 -66.671875 C 251.316406 -52.078125 242.835938 -39.351562 231.828125 -28.5 C 220.816406 -17.65625 207.722656 -9.253906 192.546875 -3.296875 C 177.378906 2.648438 160.664062 5.625 142.40625 5.625 C 124.457031 5.625 108.019531 2.691406 93.09375 -3.171875 C 78.164062 -9.046875 65.28125 -17.363281 54.4375 -28.125 C 43.59375 -38.894531 35.191406 -51.660156 29.234375 -66.421875 C 23.285156 -81.191406 20.3125 -97.382812 20.3125 -115 C 20.3125 -132.445312 23.285156 -148.46875 29.234375 -163.0625 C 35.191406 -177.664062 43.675781 -190.347656 54.6875 -201.109375 C 65.695312 -211.878906 78.785156 -220.238281 93.953125 -226.1875 C 109.117188 -232.144531 125.835938 -235.125 144.109375 -235.125 Z M 161.484375 -15.65625 C 175.023438 -17.613281 186.078125 -23.203125 194.640625 -32.421875 C 203.203125 -41.640625 208.910156 -54.035156 211.765625 -69.609375 C 214.617188 -85.179688 214.25 -103.488281 210.65625 -124.53125 C 207.070312 -145.738281 201.203125 -163.316406 193.046875 -177.265625 C 184.890625 -191.210938 175.019531 -201.328125 163.4375 -207.609375 C 151.851562 -213.890625 139.050781 -215.96875 125.03125 -213.84375 C 111.488281 -211.882812 100.4375 -206.296875 91.875 -197.078125 C 83.3125 -187.867188 77.601562 -175.515625 74.75 -160.015625 C 71.894531 -144.515625 72.257812 -126.164062 75.84375 -104.96875 C 79.4375 -83.757812 85.3125 -66.179688 93.46875 -52.234375 C 101.625 -38.285156 111.53125 -28.210938 123.1875 -22.015625 C 134.851562 -15.816406 147.617188 -13.695312 161.484375 -15.65625 Z M 161.484375 -15.65625 "/></g></g></g><g fill="#f4efe6" fill-opacity="1"><g transform="translate(1352.33795, 473.860011)"><g><path d="M 150.46875 -323.453125 L 134.328125 -320.515625 C 126.328125 -318.554688 122.328125 -314.15625 122.328125 -307.3125 L 122.328125 -37.4375 C 122.328125 -31.394531 124.242188 -26.988281 128.078125 -24.21875 C 131.910156 -21.445312 137.828125 -20.0625 145.828125 -20.0625 L 197.203125 -20.0625 C 206.660156 -20.0625 214.648438 -21.285156 221.171875 -23.734375 C 227.703125 -26.179688 233.492188 -30.503906 238.546875 -36.703125 C 243.609375 -42.898438 248.503906 -51.625 253.234375 -62.875 L 266.9375 -95.671875 C 269.707031 -102.191406 274.273438 -104.800781 280.640625 -103.5 C 287.492188 -102.1875 289.941406 -97.703125 287.984375 -90.046875 L 267.1875 -4.890625 C 265.875 0.160156 264.078125 3.785156 261.796875 5.984375 C 259.515625 8.191406 256.332031 9.296875 252.25 9.296875 C 248.988281 9.296875 245.972656 8.519531 243.203125 6.96875 C 240.429688 5.425781 237.289062 3.878906 233.78125 2.328125 C 230.28125 0.773438 225.914062 0 220.6875 0 L 39.640625 0 C 31.484375 0 27.40625 -3.015625 27.40625 -9.046875 C 27.40625 -13.941406 30.585938 -17.285156 36.953125 -19.078125 L 52.84375 -22.015625 C 61 -24.140625 65.078125 -28.546875 65.078125 -35.234375 L 65.078125 -307.3125 C 65.078125 -314.15625 61 -318.554688 52.84375 -320.515625 L 36.953125 -323.453125 C 30.585938 -325.242188 27.40625 -328.585938 27.40625 -333.484375 C 27.40625 -339.523438 31.484375 -342.546875 39.640625 -342.546875 L 147.78125 -342.546875 C 155.769531 -342.546875 159.765625 -339.523438 159.765625 -333.484375 C 159.765625 -328.585938 156.664062 -325.242188 150.46875 -323.453125 Z M 150.46875 -323.453125 "/></g></g></g><g fill="#f4efe6" fill-opacity="1"><g transform="translate(1586.003485, 473.860011)"><g><path d="M 236.109375 -143.375 C 236.109375 -127.71875 227.300781 -119.890625 209.6875 -119.890625 L 68.265625 -119.890625 C 69.398438 -100.316406 73.640625 -83.921875 80.984375 -70.703125 C 88.328125 -57.492188 98.113281 -47.503906 110.34375 -40.734375 C 122.582031 -33.960938 136.691406 -30.578125 152.671875 -30.578125 C 168.816406 -30.578125 182.84375 -34.164062 194.75 -41.34375 C 206.664062 -48.519531 215.066406 -58.0625 219.953125 -69.96875 C 223.710938 -74.863281 227.054688 -77.3125 229.984375 -77.3125 C 232.273438 -77.3125 233.910156 -76.375 234.890625 -74.5 C 235.867188 -72.625 236.359375 -70.300781 236.359375 -67.53125 C 235.703125 -57.414062 232.765625 -47.953125 227.546875 -39.140625 C 222.328125 -30.335938 215.269531 -22.550781 206.375 -15.78125 C 197.488281 -9.007812 187.171875 -3.75 175.421875 0 C 163.679688 3.75 150.796875 5.625 136.765625 5.625 C 119.484375 5.625 103.703125 2.894531 89.421875 -2.5625 C 75.148438 -8.03125 62.875 -15.898438 52.59375 -26.171875 C 42.320312 -36.453125 34.375 -48.726562 28.75 -63 C 23.125 -77.269531 20.3125 -93.21875 20.3125 -110.84375 C 20.3125 -128.78125 23 -145.332031 28.375 -160.5 C 33.757812 -175.675781 41.585938 -188.847656 51.859375 -200.015625 C 62.140625 -211.191406 74.539062 -219.878906 89.0625 -226.078125 C 103.582031 -232.273438 119.894531 -235.375 138 -235.375 C 158.0625 -235.375 175.429688 -231.5 190.109375 -223.75 C 204.785156 -216 216.117188 -205.191406 224.109375 -191.328125 C 232.109375 -177.460938 236.109375 -161.476562 236.109375 -143.375 Z M 131.140625 -215.796875 C 119.234375 -215.796875 108.671875 -212.492188 99.453125 -205.890625 C 90.242188 -199.285156 82.90625 -190.03125 77.4375 -178.125 C 71.96875 -166.21875 68.910156 -152.109375 68.265625 -135.796875 L 171.03125 -135.796875 C 179.1875 -135.796875 183.265625 -139.382812 183.265625 -146.5625 C 183.265625 -168.25 178.570312 -185.207031 169.1875 -197.4375 C 159.8125 -209.675781 147.128906 -215.796875 131.140625 -215.796875 Z M 131.140625 -215.796875 "/></g></g></g><g fill="#f4efe6" fill-opacity="1"><g transform="translate(1774.159321, 473.860011)"><g><path d="M 232.1875 -171.515625 C 232.1875 -163.847656 229.617188 -157.363281 224.484375 -152.0625 C 219.347656 -146.757812 212.617188 -144.109375 204.296875 -144.109375 C 195.984375 -144.109375 189.582031 -146.472656 185.09375 -151.203125 C 180.601562 -155.929688 178.359375 -162.128906 178.359375 -169.796875 L 178.359375 -177.140625 C 178.359375 -188.722656 174.363281 -198.0625 166.375 -205.15625 C 158.382812 -212.25 147.375 -215.796875 133.34375 -215.796875 C 120.78125 -215.796875 109.566406 -212.25 99.703125 -205.15625 C 89.835938 -198.0625 82.128906 -188.070312 76.578125 -175.1875 C 71.035156 -162.300781 68.265625 -147.050781 68.265625 -129.4375 C 68.265625 -108.226562 71.894531 -90.242188 79.15625 -75.484375 C 86.414062 -60.722656 96.445312 -49.546875 109.25 -41.953125 C 122.050781 -34.367188 136.609375 -30.578125 152.921875 -30.578125 C 168.410156 -30.578125 181.863281 -34.164062 193.28125 -41.34375 C 204.707031 -48.519531 212.785156 -57.898438 217.515625 -69.484375 C 221.265625 -74.378906 224.691406 -76.828125 227.796875 -76.828125 C 230.078125 -76.828125 231.664062 -75.890625 232.5625 -74.015625 C 233.457031 -72.140625 233.90625 -69.894531 233.90625 -67.28125 C 233.09375 -57.332031 230.15625 -47.953125 225.09375 -39.140625 C 220.039062 -30.335938 213.234375 -22.550781 204.671875 -15.78125 C 196.109375 -9.007812 186.078125 -3.75 174.578125 0 C 163.078125 3.75 150.554688 5.625 137.015625 5.625 C 119.722656 5.625 103.941406 2.894531 89.671875 -2.5625 C 75.398438 -8.03125 63.125 -15.898438 52.84375 -26.171875 C 42.570312 -36.453125 34.617188 -48.726562 28.984375 -63 C 23.359375 -77.269531 20.546875 -93.21875 20.546875 -110.84375 C 20.546875 -128.289062 23.359375 -144.554688 28.984375 -159.640625 C 34.617188 -174.734375 42.695312 -187.945312 53.21875 -199.28125 C 63.738281 -210.625 76.378906 -219.472656 91.140625 -225.828125 C 105.898438 -232.191406 122.414062 -235.375 140.6875 -235.375 C 159.601562 -235.375 175.867188 -232.394531 189.484375 -226.4375 C 203.109375 -220.488281 213.628906 -212.703125 221.046875 -203.078125 C 228.472656 -193.453125 232.1875 -182.929688 232.1875 -171.515625 Z M 232.1875 -171.515625 "/></g></g></g><g fill="#f4efe6" fill-opacity="1"><g transform="translate(1955.953824, 473.860011)"><g><path d="M 34.75 -209.6875 L 22.015625 -213.109375 C 17.773438 -214.410156 14.878906 -215.753906 13.328125 -217.140625 C 11.785156 -218.523438 11.015625 -220.28125 11.015625 -222.40625 C 11.015625 -225.019531 11.910156 -226.976562 13.703125 -228.28125 C 15.492188 -229.582031 17.941406 -230.234375 21.046875 -230.234375 L 36.703125 -230.234375 C 40.941406 -230.234375 44.40625 -230.925781 47.09375 -232.3125 C 49.789062 -233.695312 52.195312 -236.265625 54.3125 -240.015625 L 73.640625 -275.5 C 76.085938 -279.414062 78.578125 -282.226562 81.109375 -283.9375 C 83.640625 -285.65625 86.207031 -286.515625 88.8125 -286.515625 C 94.851562 -286.515625 97.875 -283.085938 97.875 -276.234375 L 97.875 -230.234375 L 151.703125 -230.234375 C 158.710938 -230.234375 162.21875 -227.707031 162.21875 -222.65625 C 162.21875 -219.226562 160.460938 -216.367188 156.953125 -214.078125 C 153.453125 -211.796875 147.945312 -210.65625 140.4375 -210.65625 L 97.875 -210.65625 L 97.875 -60.671875 C 97.875 -49.421875 100.195312 -40.859375 104.84375 -34.984375 C 109.488281 -29.117188 115.890625 -26.1875 124.046875 -26.1875 C 130.078125 -26.1875 134.765625 -27.203125 138.109375 -29.234375 C 141.460938 -31.273438 144.113281 -33.597656 146.0625 -36.203125 C 148.019531 -38.816406 149.816406 -41.144531 151.453125 -43.1875 C 153.085938 -45.226562 155.207031 -46.25 157.8125 -46.25 C 162.050781 -46.25 164.171875 -43.390625 164.171875 -37.671875 C 164.171875 -30.660156 161.640625 -23.972656 156.578125 -17.609375 C 151.523438 -11.253906 144.550781 -6.035156 135.65625 -1.953125 C 126.769531 2.117188 116.539062 4.15625 104.96875 4.15625 C 87.019531 4.15625 72.703125 -0.53125 62.015625 -9.90625 C 51.335938 -19.289062 46 -33.441406 46 -52.359375 L 46 -195.5 C 46 -199.570312 45.179688 -202.664062 43.546875 -204.78125 C 41.921875 -206.90625 38.988281 -208.539062 34.75 -209.6875 Z M 34.75 -209.6875 "/></g></g></g><g fill="#f4efe6" fill-opacity="1"><g transform="translate(2067.036696, 473.860011)"><g><path d="M 72.421875 -278.921875 C 61.816406 -278.921875 53.210938 -281.859375 46.609375 -287.734375 C 40.003906 -293.609375 36.703125 -301.113281 36.703125 -310.25 C 36.703125 -319.382812 40.003906 -326.84375 46.609375 -332.625 C 53.210938 -338.414062 61.816406 -341.3125 72.421875 -341.3125 C 83.191406 -341.3125 91.878906 -338.414062 98.484375 -332.625 C 105.085938 -326.84375 108.390625 -319.382812 108.390625 -310.25 C 108.390625 -301.113281 105.085938 -293.609375 98.484375 -287.734375 C 91.878906 -281.859375 83.191406 -278.921875 72.421875 -278.921875 Z M 103.984375 -220.453125 L 103.984375 -34.25 C 103.984375 -29.6875 104.796875 -26.300781 106.421875 -24.09375 C 108.054688 -21.894531 110.503906 -20.390625 113.765625 -19.578125 L 124.78125 -17.125 C 130.488281 -15.164062 133.34375 -12.226562 133.34375 -8.3125 C 133.34375 -2.769531 129.59375 0 122.09375 0 L 33.28125 0 C 25.9375 0 22.265625 -2.769531 22.265625 -8.3125 C 22.265625 -12.394531 25.117188 -15.25 30.828125 -16.875 L 42.328125 -19.578125 C 45.585938 -20.390625 48.03125 -21.894531 49.65625 -24.09375 C 51.289062 -26.300781 52.109375 -29.609375 52.109375 -34.015625 L 52.109375 -185.46875 C 52.109375 -192.3125 49.421875 -195.976562 44.046875 -196.46875 L 27.640625 -197.203125 C 22.265625 -198.179688 19.578125 -200.546875 19.578125 -204.296875 C 19.578125 -206.578125 20.3125 -208.367188 21.78125 -209.671875 C 23.25 -210.984375 25.773438 -212.375 29.359375 -213.84375 L 69.734375 -228.03125 C 74.953125 -229.988281 79.191406 -231.375 82.453125 -232.1875 C 85.710938 -233.007812 88.484375 -233.421875 90.765625 -233.421875 C 95.171875 -233.421875 98.472656 -232.273438 100.671875 -229.984375 C 102.878906 -227.703125 103.984375 -224.523438 103.984375 -220.453125 Z M 103.984375 -220.453125 "/></g></g></g><g fill="#f4efe6" fill-opacity="1"><g transform="translate(2147.290594, 473.860011)"><g><path d="M 143.375 2.9375 L 126 2.9375 C 117.351562 2.9375 111.398438 -1.46875 108.140625 -10.28125 L 34.25 -194.265625 C 31.644531 -200.953125 29.40625 -205.316406 27.53125 -207.359375 C 25.65625 -209.398438 23.328125 -210.742188 20.546875 -211.390625 L 11.5 -213.109375 C 8.394531 -213.921875 6.191406 -215.0625 4.890625 -216.53125 C 3.585938 -218 2.9375 -219.796875 2.9375 -221.921875 C 2.9375 -227.460938 6.609375 -230.234375 13.953125 -230.234375 L 112.546875 -230.234375 C 115.972656 -230.234375 118.664062 -229.5 120.625 -228.03125 C 122.582031 -226.5625 123.5625 -224.601562 123.5625 -222.15625 C 123.5625 -219.875 122.867188 -218.039062 121.484375 -216.65625 C 120.097656 -215.269531 117.691406 -214.171875 114.265625 -213.359375 L 103.984375 -211.640625 C 95.992188 -210.335938 91.304688 -207.847656 89.921875 -204.171875 C 88.535156 -200.503906 89.632812 -193.859375 93.21875 -184.234375 L 150.71875 -36.453125 L 207.96875 -184.234375 C 211.71875 -193.859375 212.859375 -200.503906 211.390625 -204.171875 C 209.921875 -207.847656 205.109375 -210.335938 196.953125 -211.640625 L 186.921875 -213.359375 C 183.503906 -214.171875 181.097656 -215.269531 179.703125 -216.65625 C 178.316406 -218.039062 177.625 -219.875 177.625 -222.15625 C 177.625 -224.601562 178.601562 -226.5625 180.5625 -228.03125 C 182.519531 -229.5 185.210938 -230.234375 188.640625 -230.234375 L 256.90625 -230.234375 C 260.164062 -230.234375 262.773438 -229.5 264.734375 -228.03125 C 266.691406 -226.5625 267.671875 -224.523438 267.671875 -221.921875 C 267.671875 -219.796875 267.054688 -218.039062 265.828125 -216.65625 C 264.609375 -215.269531 262.285156 -214.171875 258.859375 -213.359375 L 249.8125 -211.890625 C 246.707031 -211.234375 243.972656 -209.191406 241.609375 -205.765625 C 239.242188 -202.335938 236.347656 -196.300781 232.921875 -187.65625 L 161 -9.046875 C 159.039062 -4.484375 156.59375 -1.347656 153.65625 0.359375 C 150.71875 2.078125 147.289062 2.9375 143.375 2.9375 Z M 143.375 2.9375 "/></g></g></g><g fill="#f4efe6" fill-opacity="1"><g transform="translate(2349.882331, 473.860011)"><g><path d="M 25.203125 -50.890625 C 25.203125 -63.941406 29.113281 -75.441406 36.9375 -85.390625 C 44.769531 -95.335938 56.023438 -103.125 70.703125 -108.75 C 85.390625 -114.382812 102.925781 -117.203125 123.3125 -117.203125 C 131.957031 -117.203125 140.03125 -116.585938 147.53125 -115.359375 C 155.039062 -114.140625 161.894531 -112.46875 168.09375 -110.34375 L 168.09375 -176.40625 C 168.09375 -190.4375 164.539062 -201.203125 157.4375 -208.703125 C 150.34375 -216.203125 140.273438 -219.953125 127.234375 -219.953125 C 114.835938 -219.953125 105.539062 -217.425781 99.34375 -212.375 C 93.144531 -207.320312 90.046875 -201.207031 90.046875 -194.03125 L 90.046875 -174.703125 C 90.046875 -166.867188 87.472656 -160.832031 82.328125 -156.59375 C 77.191406 -152.351562 70.054688 -150.234375 60.921875 -150.234375 C 52.929688 -150.234375 46.816406 -152.269531 42.578125 -156.34375 C 38.335938 -160.425781 36.21875 -165.972656 36.21875 -172.984375 C 36.21875 -180.484375 38.457031 -187.90625 42.9375 -195.25 C 47.425781 -202.59375 53.953125 -209.28125 62.515625 -215.3125 C 71.078125 -221.34375 81.597656 -226.148438 94.078125 -229.734375 C 106.554688 -233.328125 120.867188 -235.125 137.015625 -235.125 C 164.742188 -235.125 185.414062 -229.171875 199.03125 -217.265625 C 212.65625 -205.359375 219.46875 -189.289062 219.46875 -169.0625 L 219.46875 -36.703125 C 219.46875 -26.585938 223.300781 -21.53125 230.96875 -21.53125 C 235.050781 -21.53125 237.945312 -22.46875 239.65625 -24.34375 C 241.363281 -26.21875 242.875 -28.050781 244.1875 -29.84375 C 245 -30.820312 245.851562 -31.675781 246.75 -32.40625 C 247.644531 -33.144531 248.742188 -33.515625 250.046875 -33.515625 C 253.472656 -33.515625 255.1875 -31.234375 255.1875 -26.671875 C 255.1875 -21.941406 253.597656 -17.085938 250.421875 -12.109375 C 247.242188 -7.140625 242.515625 -2.941406 236.234375 0.484375 C 229.953125 3.910156 222.160156 5.625 212.859375 5.625 C 201.117188 5.625 191.617188 3.054688 184.359375 -2.078125 C 177.097656 -7.210938 172.898438 -14.757812 171.765625 -24.71875 C 161.972656 -14.925781 150.429688 -7.421875 137.140625 -2.203125 C 123.847656 3.015625 109.941406 5.625 95.421875 5.625 C 81.554688 5.625 69.363281 3.300781 58.84375 -1.34375 C 48.320312 -5.988281 40.082031 -12.550781 34.125 -21.03125 C 28.175781 -29.519531 25.203125 -39.472656 25.203125 -50.890625 Z M 78.78125 -59.453125 C 78.78125 -46.398438 82.53125 -36.367188 90.03125 -29.359375 C 97.539062 -22.347656 107.003906 -18.84375 118.421875 -18.84375 C 137.335938 -18.84375 153.894531 -25.53125 168.09375 -38.90625 L 168.09375 -95.171875 C 162.382812 -97.460938 156.46875 -99.257812 150.34375 -100.5625 C 144.226562 -101.863281 137.582031 -102.515625 130.40625 -102.515625 C 114.257812 -102.515625 101.617188 -98.679688 92.484375 -91.015625 C 83.347656 -83.347656 78.78125 -72.828125 78.78125 -59.453125 Z M 78.78125 -59.453125 "/></g></g></g><g fill="#171717" fill-opacity="1"><g transform="translate(19.743537, 478.627315)"><g><path d="M 323.953125 -85.875 C 323.953125 -75.113281 320.929688 -64.1875 314.890625 -53.09375 C 308.859375 -42 300.09375 -31.757812 288.59375 -22.375 C 277.09375 -13 263.101562 -5.457031 246.625 0.25 C 230.15625 5.957031 211.476562 8.8125 190.59375 8.8125 C 164.5 8.8125 141.09375 4.445312 120.375 -4.28125 C 99.664062 -13.007812 81.96875 -25.320312 67.28125 -41.21875 C 52.601562 -57.125 41.390625 -75.925781 33.640625 -97.625 C 25.890625 -119.320312 22.015625 -143.132812 22.015625 -169.0625 C 22.015625 -195.320312 26.050781 -219.503906 34.125 -241.609375 C 42.207031 -263.710938 53.546875 -282.921875 68.140625 -299.234375 C 82.742188 -315.546875 99.910156 -328.1875 119.640625 -337.15625 C 139.378906 -346.125 160.832031 -350.609375 184 -350.609375 C 196.71875 -350.609375 207.644531 -349.546875 216.78125 -347.421875 C 225.914062 -345.304688 233.539062 -342.863281 239.65625 -340.09375 C 245.769531 -337.320312 250.785156 -334.875 254.703125 -332.75 C 258.617188 -330.632812 261.71875 -329.578125 264 -329.578125 C 266.9375 -329.578125 269.21875 -330.472656 270.84375 -332.265625 C 272.476562 -334.054688 273.863281 -336.09375 275 -338.375 C 276.144531 -340.664062 277.535156 -342.707031 279.171875 -344.5 C 280.804688 -346.289062 283.085938 -347.1875 286.015625 -347.1875 C 288.304688 -347.1875 290.265625 -346.492188 291.890625 -345.109375 C 293.523438 -343.722656 294.910156 -341.15625 296.046875 -337.40625 L 322.234375 -254.453125 C 323.210938 -251.191406 322.925781 -248.296875 321.375 -245.765625 C 319.820312 -243.242188 317.414062 -241.738281 314.15625 -241.25 C 311.0625 -240.59375 308.25 -240.957031 305.71875 -242.34375 C 303.1875 -243.726562 301.269531 -245.972656 299.96875 -249.078125 C 290.832031 -268.484375 280.800781 -284.054688 269.875 -295.796875 C 258.945312 -307.546875 246.875 -316.070312 233.65625 -321.375 C 220.445312 -326.675781 205.847656 -329.328125 189.859375 -329.328125 C 174.035156 -329.328125 159.394531 -325.859375 145.9375 -318.921875 C 132.488281 -311.992188 120.785156 -302.046875 110.828125 -289.078125 C 100.878906 -276.109375 93.171875 -260.570312 87.703125 -242.46875 C 82.242188 -224.363281 79.515625 -204.21875 79.515625 -182.03125 C 79.515625 -156.914062 82.695312 -134.53125 89.0625 -114.875 C 95.425781 -95.21875 104.351562 -78.617188 115.84375 -65.078125 C 127.34375 -51.546875 140.800781 -41.269531 156.21875 -34.25 C 171.632812 -27.238281 188.394531 -23.734375 206.5 -23.734375 C 230.476562 -23.734375 250.988281 -29.238281 268.03125 -40.25 C 285.082031 -51.257812 298.007812 -66.550781 306.8125 -86.125 C 308.28125 -89.21875 309.953125 -91.335938 311.828125 -92.484375 C 313.703125 -93.628906 315.703125 -94.035156 317.828125 -93.703125 C 321.910156 -93.210938 323.953125 -90.601562 323.953125 -85.875 Z M 323.953125 -85.875 "/></g></g></g><g fill="#171717" fill-opacity="1"><g transform="translate(293.046597, 478.627315)"><g><path d="M 25.203125 -50.890625 C 25.203125 -63.941406 29.113281 -75.441406 36.9375 -85.390625 C 44.769531 -95.335938 56.023438 -103.125 70.703125 -108.75 C 85.390625 -114.382812 102.925781 -117.203125 123.3125 -117.203125 C 131.957031 -117.203125 140.03125 -116.585938 147.53125 -115.359375 C 155.039062 -114.140625 161.894531 -112.46875 168.09375 -110.34375 L 168.09375 -176.40625 C 168.09375 -190.4375 164.539062 -201.203125 157.4375 -208.703125 C 150.34375 -216.203125 140.273438 -219.953125 127.234375 -219.953125 C 114.835938 -219.953125 105.539062 -217.425781 99.34375 -212.375 C 93.144531 -207.320312 90.046875 -201.207031 90.046875 -194.03125 L 90.046875 -174.703125 C 90.046875 -166.867188 87.472656 -160.832031 82.328125 -156.59375 C 77.191406 -152.351562 70.054688 -150.234375 60.921875 -150.234375 C 52.929688 -150.234375 46.816406 -152.269531 42.578125 -156.34375 C 38.335938 -160.425781 36.21875 -165.972656 36.21875 -172.984375 C 36.21875 -180.484375 38.457031 -187.90625 42.9375 -195.25 C 47.425781 -202.59375 53.953125 -209.28125 62.515625 -215.3125 C 71.078125 -221.34375 81.597656 -226.148438 94.078125 -229.734375 C 106.554688 -233.328125 120.867188 -235.125 137.015625 -235.125 C 164.742188 -235.125 185.414062 -229.171875 199.03125 -217.265625 C 212.65625 -205.359375 219.46875 -189.289062 219.46875 -169.0625 L 219.46875 -36.703125 C 219.46875 -26.585938 223.300781 -21.53125 230.96875 -21.53125 C 235.050781 -21.53125 237.945312 -22.46875 239.65625 -24.34375 C 241.363281 -26.21875 242.875 -28.050781 244.1875 -29.84375 C 245 -30.820312 245.851562 -31.675781 246.75 -32.40625 C 247.644531 -33.144531 248.742188 -33.515625 250.046875 -33.515625 C 253.472656 -33.515625 255.1875 -31.234375 255.1875 -26.671875 C 255.1875 -21.941406 253.597656 -17.085938 250.421875 -12.109375 C 247.242188 -7.140625 242.515625 -2.941406 236.234375 0.484375 C 229.953125 3.910156 222.160156 5.625 212.859375 5.625 C 201.117188 5.625 191.617188 3.054688 184.359375 -2.078125 C 177.097656 -7.210938 172.898438 -14.757812 171.765625 -24.71875 C 161.972656 -14.925781 150.429688 -7.421875 137.140625 -2.203125 C 123.847656 3.015625 109.941406 5.625 95.421875 5.625 C 81.554688 5.625 69.363281 3.300781 58.84375 -1.34375 C 48.320312 -5.988281 40.082031 -12.550781 34.125 -21.03125 C 28.175781 -29.519531 25.203125 -39.472656 25.203125 -50.890625 Z M 78.78125 -59.453125 C 78.78125 -46.398438 82.53125 -36.367188 90.03125 -29.359375 C 97.539062 -22.347656 107.003906 -18.84375 118.421875 -18.84375 C 137.335938 -18.84375 153.894531 -25.53125 168.09375 -38.90625 L 168.09375 -95.171875 C 162.382812 -97.460938 156.46875 -99.257812 150.34375 -100.5625 C 144.226562 -101.863281 137.582031 -102.515625 130.40625 -102.515625 C 114.257812 -102.515625 101.617188 -98.679688 92.484375 -91.015625 C 83.347656 -83.347656 78.78125 -72.828125 78.78125 -59.453125 Z M 78.78125 -59.453125 "/></g></g></g><g fill="#171717" fill-opacity="1"><g transform="translate(491.478817, 478.627315)"><g><path d="M 108.390625 -216.78125 C 96.160156 -216.78125 86.492188 -213.640625 79.390625 -207.359375 C 72.296875 -201.078125 68.75 -192.878906 68.75 -182.765625 C 68.75 -176.566406 70.21875 -170.9375 73.15625 -165.875 C 76.09375 -160.820312 81.394531 -156.21875 89.0625 -152.0625 C 96.726562 -147.90625 107.65625 -144.03125 121.84375 -140.4375 C 144.675781 -135.382812 162.453125 -129.066406 175.171875 -121.484375 C 187.898438 -113.898438 196.875 -105.253906 202.09375 -95.546875 C 207.3125 -85.835938 209.921875 -75.113281 209.921875 -63.375 C 209.921875 -49.664062 206.578125 -37.632812 199.890625 -27.28125 C 193.203125 -16.925781 183.457031 -8.851562 170.65625 -3.0625 C 157.851562 2.726562 142.15625 5.625 123.5625 5.625 C 113.445312 5.625 105.085938 4.726562 98.484375 2.9375 C 91.878906 1.144531 86.375 -0.644531 81.96875 -2.4375 C 77.5625 -4.238281 73.644531 -5.140625 70.21875 -5.140625 C 66.957031 -5.140625 64.425781 -4.238281 62.625 -2.4375 C 60.832031 -0.644531 59.117188 1.1875 57.484375 3.0625 C 55.859375 4.9375 53.578125 5.875 50.640625 5.875 C 48.359375 5.875 46.566406 5.179688 45.265625 3.796875 C 43.960938 2.410156 42.738281 -0.078125 41.59375 -3.671875 L 23.484375 -54.8125 C 22.015625 -59.375 21.566406 -63.160156 22.140625 -66.171875 C 22.710938 -69.191406 24.546875 -71.273438 27.640625 -72.421875 C 33.359375 -74.378906 38.171875 -72.175781 42.078125 -65.8125 C 49.253906 -52.4375 57.039062 -41.875 65.4375 -34.125 C 73.84375 -26.382812 82.691406 -20.878906 91.984375 -17.609375 C 101.285156 -14.347656 110.914062 -12.71875 120.875 -12.71875 C 136.363281 -12.71875 147.984375 -15.976562 155.734375 -22.5 C 163.484375 -29.03125 167.359375 -37.675781 167.359375 -48.4375 C 167.359375 -54.96875 165.722656 -60.882812 162.453125 -66.1875 C 159.191406 -71.488281 153.238281 -76.378906 144.59375 -80.859375 C 135.957031 -85.347656 123.644531 -89.550781 107.65625 -93.46875 C 87.757812 -98.195312 71.894531 -103.984375 60.0625 -110.828125 C 48.238281 -117.679688 39.753906 -125.921875 34.609375 -135.546875 C 29.472656 -145.171875 26.90625 -156.34375 26.90625 -169.0625 C 26.90625 -182.113281 30.164062 -193.613281 36.6875 -203.5625 C 43.21875 -213.507812 52.4375 -221.296875 64.34375 -226.921875 C 76.25 -232.554688 90.195312 -235.375 106.1875 -235.375 C 116.46875 -235.375 124.828125 -234.394531 131.265625 -232.4375 C 137.710938 -230.476562 143.015625 -228.476562 147.171875 -226.4375 C 151.328125 -224.40625 155.035156 -223.390625 158.296875 -223.390625 C 161.890625 -223.390625 164.664062 -224.40625 166.625 -226.4375 C 168.582031 -228.476562 170.375 -230.476562 172 -232.4375 C 173.632812 -234.394531 175.835938 -235.375 178.609375 -235.375 C 180.566406 -235.375 182.238281 -234.679688 183.625 -233.296875 C 185.007812 -231.910156 186.03125 -229.585938 186.6875 -226.328125 L 200.625 -177.625 C 201.9375 -172.570312 202.382812 -168.492188 201.96875 -165.390625 C 201.5625 -162.296875 199.726562 -160.097656 196.46875 -158.796875 C 193.53125 -157.648438 190.878906 -157.851562 188.515625 -159.40625 C 186.148438 -160.957031 183.828125 -163.769531 181.546875 -167.84375 C 172.242188 -185.457031 161.148438 -198.015625 148.265625 -205.515625 C 135.378906 -213.023438 122.085938 -216.78125 108.390625 -216.78125 Z M 108.390625 -216.78125 "/></g></g></g><g fill="#171717" fill-opacity="1"><g transform="translate(653.454357, 478.627315)"><g><path d="M 25.203125 -50.890625 C 25.203125 -63.941406 29.113281 -75.441406 36.9375 -85.390625 C 44.769531 -95.335938 56.023438 -103.125 70.703125 -108.75 C 85.390625 -114.382812 102.925781 -117.203125 123.3125 -117.203125 C 131.957031 -117.203125 140.03125 -116.585938 147.53125 -115.359375 C 155.039062 -114.140625 161.894531 -112.46875 168.09375 -110.34375 L 168.09375 -176.40625 C 168.09375 -190.4375 164.539062 -201.203125 157.4375 -208.703125 C 150.34375 -216.203125 140.273438 -219.953125 127.234375 -219.953125 C 114.835938 -219.953125 105.539062 -217.425781 99.34375 -212.375 C 93.144531 -207.320312 90.046875 -201.207031 90.046875 -194.03125 L 90.046875 -174.703125 C 90.046875 -166.867188 87.472656 -160.832031 82.328125 -156.59375 C 77.191406 -152.351562 70.054688 -150.234375 60.921875 -150.234375 C 52.929688 -150.234375 46.816406 -152.269531 42.578125 -156.34375 C 38.335938 -160.425781 36.21875 -165.972656 36.21875 -172.984375 C 36.21875 -180.484375 38.457031 -187.90625 42.9375 -195.25 C 47.425781 -202.59375 53.953125 -209.28125 62.515625 -215.3125 C 71.078125 -221.34375 81.597656 -226.148438 94.078125 -229.734375 C 106.554688 -233.328125 120.867188 -235.125 137.015625 -235.125 C 164.742188 -235.125 185.414062 -229.171875 199.03125 -217.265625 C 212.65625 -205.359375 219.46875 -189.289062 219.46875 -169.0625 L 219.46875 -36.703125 C 219.46875 -26.585938 223.300781 -21.53125 230.96875 -21.53125 C 235.050781 -21.53125 237.945312 -22.46875 239.65625 -24.34375 C 241.363281 -26.21875 242.875 -28.050781 244.1875 -29.84375 C 245 -30.820312 245.851562 -31.675781 246.75 -32.40625 C 247.644531 -33.144531 248.742188 -33.515625 250.046875 -33.515625 C 253.472656 -33.515625 255.1875 -31.234375 255.1875 -26.671875 C 255.1875 -21.941406 253.597656 -17.085938 250.421875 -12.109375 C 247.242188 -7.140625 242.515625 -2.941406 236.234375 0.484375 C 229.953125 3.910156 222.160156 5.625 212.859375 5.625 C 201.117188 5.625 191.617188 3.054688 184.359375 -2.078125 C 177.097656 -7.210938 172.898438 -14.757812 171.765625 -24.71875 C 161.972656 -14.925781 150.429688 -7.421875 137.140625 -2.203125 C 123.847656 3.015625 109.941406 5.625 95.421875 5.625 C 81.554688 5.625 69.363281 3.300781 58.84375 -1.34375 C 48.320312 -5.988281 40.082031 -12.550781 34.125 -21.03125 C 28.175781 -29.519531 25.203125 -39.472656 25.203125 -50.890625 Z M 78.78125 -59.453125 C 78.78125 -46.398438 82.53125 -36.367188 90.03125 -29.359375 C 97.539062 -22.347656 107.003906 -18.84375 118.421875 -18.84375 C 137.335938 -18.84375 153.894531 -25.53125 168.09375 -38.90625 L 168.09375 -95.171875 C 162.382812 -97.460938 156.46875 -99.257812 150.34375 -100.5625 C 144.226562 -101.863281 137.582031 -102.515625 130.40625 -102.515625 C 114.257812 -102.515625 101.617188 -98.679688 92.484375 -91.015625 C 83.347656 -83.347656 78.78125 -72.828125 78.78125 -59.453125 Z M 78.78125 -59.453125 "/></g></g></g><g fill="#171717" fill-opacity="1"><g transform="translate(851.886577, 478.627315)"><g/></g></g><g fill="#171717" fill-opacity="1"><g transform="translate(894.460343, 478.627315)"><g><path d="M 323.953125 -85.875 C 323.953125 -75.113281 320.929688 -64.1875 314.890625 -53.09375 C 308.859375 -42 300.09375 -31.757812 288.59375 -22.375 C 277.09375 -13 263.101562 -5.457031 246.625 0.25 C 230.15625 5.957031 211.476562 8.8125 190.59375 8.8125 C 164.5 8.8125 141.09375 4.445312 120.375 -4.28125 C 99.664062 -13.007812 81.96875 -25.320312 67.28125 -41.21875 C 52.601562 -57.125 41.390625 -75.925781 33.640625 -97.625 C 25.890625 -119.320312 22.015625 -143.132812 22.015625 -169.0625 C 22.015625 -195.320312 26.050781 -219.503906 34.125 -241.609375 C 42.207031 -263.710938 53.546875 -282.921875 68.140625 -299.234375 C 82.742188 -315.546875 99.910156 -328.1875 119.640625 -337.15625 C 139.378906 -346.125 160.832031 -350.609375 184 -350.609375 C 196.71875 -350.609375 207.644531 -349.546875 216.78125 -347.421875 C 225.914062 -345.304688 233.539062 -342.863281 239.65625 -340.09375 C 245.769531 -337.320312 250.785156 -334.875 254.703125 -332.75 C 258.617188 -330.632812 261.71875 -329.578125 264 -329.578125 C 266.9375 -329.578125 269.21875 -330.472656 270.84375 -332.265625 C 272.476562 -334.054688 273.863281 -336.09375 275 -338.375 C 276.144531 -340.664062 277.535156 -342.707031 279.171875 -344.5 C 280.804688 -346.289062 283.085938 -347.1875 286.015625 -347.1875 C 288.304688 -347.1875 290.265625 -346.492188 291.890625 -345.109375 C 293.523438 -343.722656 294.910156 -341.15625 296.046875 -337.40625 L 322.234375 -254.453125 C 323.210938 -251.191406 322.925781 -248.296875 321.375 -245.765625 C 319.820312 -243.242188 317.414062 -241.738281 314.15625 -241.25 C 311.0625 -240.59375 308.25 -240.957031 305.71875 -242.34375 C 303.1875 -243.726562 301.269531 -245.972656 299.96875 -249.078125 C 290.832031 -268.484375 280.800781 -284.054688 269.875 -295.796875 C 258.945312 -307.546875 246.875 -316.070312 233.65625 -321.375 C 220.445312 -326.675781 205.847656 -329.328125 189.859375 -329.328125 C 174.035156 -329.328125 159.394531 -325.859375 145.9375 -318.921875 C 132.488281 -311.992188 120.785156 -302.046875 110.828125 -289.078125 C 100.878906 -276.109375 93.171875 -260.570312 87.703125 -242.46875 C 82.242188 -224.363281 79.515625 -204.21875 79.515625 -182.03125 C 79.515625 -156.914062 82.695312 -134.53125 89.0625 -114.875 C 95.425781 -95.21875 104.351562 -78.617188 115.84375 -65.078125 C 127.34375 -51.546875 140.800781 -41.269531 156.21875 -34.25 C 171.632812 -27.238281 188.394531 -23.734375 206.5 -23.734375 C 230.476562 -23.734375 250.988281 -29.238281 268.03125 -40.25 C 285.082031 -51.257812 298.007812 -66.550781 306.8125 -86.125 C 308.28125 -89.21875 309.953125 -91.335938 311.828125 -92.484375 C 313.703125 -93.628906 315.703125 -94.035156 317.828125 -93.703125 C 321.910156 -93.210938 323.953125 -90.601562 323.953125 -85.875 Z M 323.953125 -85.875 "/></g></g></g><g fill="#171717" fill-opacity="1"><g transform="translate(1167.763446, 478.627315)"><g><path d="M 144.109375 -235.125 C 162.054688 -235.125 178.488281 -232.1875 193.40625 -226.3125 C 208.332031 -220.445312 221.21875 -212.128906 232.0625 -201.359375 C 242.914062 -190.597656 251.316406 -177.875 257.265625 -163.1875 C 263.222656 -148.507812 266.203125 -132.28125 266.203125 -114.5 C 266.203125 -97.21875 263.222656 -81.273438 257.265625 -66.671875 C 251.316406 -52.078125 242.835938 -39.351562 231.828125 -28.5 C 220.816406 -17.65625 207.722656 -9.253906 192.546875 -3.296875 C 177.378906 2.648438 160.664062 5.625 142.40625 5.625 C 124.457031 5.625 108.019531 2.691406 93.09375 -3.171875 C 78.164062 -9.046875 65.28125 -17.363281 54.4375 -28.125 C 43.59375 -38.894531 35.191406 -51.660156 29.234375 -66.421875 C 23.285156 -81.191406 20.3125 -97.382812 20.3125 -115 C 20.3125 -132.445312 23.285156 -148.46875 29.234375 -163.0625 C 35.191406 -177.664062 43.675781 -190.347656 54.6875 -201.109375 C 65.695312 -211.878906 78.785156 -220.238281 93.953125 -226.1875 C 109.117188 -232.144531 125.835938 -235.125 144.109375 -235.125 Z M 161.484375 -15.65625 C 175.023438 -17.613281 186.078125 -23.203125 194.640625 -32.421875 C 203.203125 -41.640625 208.910156 -54.035156 211.765625 -69.609375 C 214.617188 -85.179688 214.25 -103.488281 210.65625 -124.53125 C 207.070312 -145.738281 201.203125 -163.316406 193.046875 -177.265625 C 184.890625 -191.210938 175.019531 -201.328125 163.4375 -207.609375 C 151.851562 -213.890625 139.050781 -215.96875 125.03125 -213.84375 C 111.488281 -211.882812 100.4375 -206.296875 91.875 -197.078125 C 83.3125 -187.867188 77.601562 -175.515625 74.75 -160.015625 C 71.894531 -144.515625 72.257812 -126.164062 75.84375 -104.96875 C 79.4375 -83.757812 85.3125 -66.179688 93.46875 -52.234375 C 101.625 -38.285156 111.53125 -28.210938 123.1875 -22.015625 C 134.851562 -15.816406 147.617188 -13.695312 161.484375 -15.65625 Z M 161.484375 -15.65625 "/></g></g></g><g fill="#171717" fill-opacity="1"><g transform="translate(1386.259141, 478.627315)"><g><path d="M 150.46875 -323.453125 L 134.328125 -320.515625 C 126.328125 -318.554688 122.328125 -314.15625 122.328125 -307.3125 L 122.328125 -37.4375 C 122.328125 -31.394531 124.242188 -26.988281 128.078125 -24.21875 C 131.910156 -21.445312 137.828125 -20.0625 145.828125 -20.0625 L 197.203125 -20.0625 C 206.660156 -20.0625 214.648438 -21.285156 221.171875 -23.734375 C 227.703125 -26.179688 233.492188 -30.503906 238.546875 -36.703125 C 243.609375 -42.898438 248.503906 -51.625 253.234375 -62.875 L 266.9375 -95.671875 C 269.707031 -102.191406 274.273438 -104.800781 280.640625 -103.5 C 287.492188 -102.1875 289.941406 -97.703125 287.984375 -90.046875 L 267.1875 -4.890625 C 265.875 0.160156 264.078125 3.785156 261.796875 5.984375 C 259.515625 8.191406 256.332031 9.296875 252.25 9.296875 C 248.988281 9.296875 245.972656 8.519531 243.203125 6.96875 C 240.429688 5.425781 237.289062 3.878906 233.78125 2.328125 C 230.28125 0.773438 225.914062 0 220.6875 0 L 39.640625 0 C 31.484375 0 27.40625 -3.015625 27.40625 -9.046875 C 27.40625 -13.941406 30.585938 -17.285156 36.953125 -19.078125 L 52.84375 -22.015625 C 61 -24.140625 65.078125 -28.546875 65.078125 -35.234375 L 65.078125 -307.3125 C 65.078125 -314.15625 61 -318.554688 52.84375 -320.515625 L 36.953125 -323.453125 C 30.585938 -325.242188 27.40625 -328.585938 27.40625 -333.484375 C 27.40625 -339.523438 31.484375 -342.546875 39.640625 -342.546875 L 147.78125 -342.546875 C 155.769531 -342.546875 159.765625 -339.523438 159.765625 -333.484375 C 159.765625 -328.585938 156.664062 -325.242188 150.46875 -323.453125 Z M 150.46875 -323.453125 "/></g></g></g><g fill="#171717" fill-opacity="1"><g transform="translate(1619.924676, 478.627315)"><g><path d="M 236.109375 -143.375 C 236.109375 -127.71875 227.300781 -119.890625 209.6875 -119.890625 L 68.265625 -119.890625 C 69.398438 -100.316406 73.640625 -83.921875 80.984375 -70.703125 C 88.328125 -57.492188 98.113281 -47.503906 110.34375 -40.734375 C 122.582031 -33.960938 136.691406 -30.578125 152.671875 -30.578125 C 168.816406 -30.578125 182.84375 -34.164062 194.75 -41.34375 C 206.664062 -48.519531 215.066406 -58.0625 219.953125 -69.96875 C 223.710938 -74.863281 227.054688 -77.3125 229.984375 -77.3125 C 232.273438 -77.3125 233.910156 -76.375 234.890625 -74.5 C 235.867188 -72.625 236.359375 -70.300781 236.359375 -67.53125 C 235.703125 -57.414062 232.765625 -47.953125 227.546875 -39.140625 C 222.328125 -30.335938 215.269531 -22.550781 206.375 -15.78125 C 197.488281 -9.007812 187.171875 -3.75 175.421875 0 C 163.679688 3.75 150.796875 5.625 136.765625 5.625 C 119.484375 5.625 103.703125 2.894531 89.421875 -2.5625 C 75.148438 -8.03125 62.875 -15.898438 52.59375 -26.171875 C 42.320312 -36.453125 34.375 -48.726562 28.75 -63 C 23.125 -77.269531 20.3125 -93.21875 20.3125 -110.84375 C 20.3125 -128.78125 23 -145.332031 28.375 -160.5 C 33.757812 -175.675781 41.585938 -188.847656 51.859375 -200.015625 C 62.140625 -211.191406 74.539062 -219.878906 89.0625 -226.078125 C 103.582031 -232.273438 119.894531 -235.375 138 -235.375 C 158.0625 -235.375 175.429688 -231.5 190.109375 -223.75 C 204.785156 -216 216.117188 -205.191406 224.109375 -191.328125 C 232.109375 -177.460938 236.109375 -161.476562 236.109375 -143.375 Z M 131.140625 -215.796875 C 119.234375 -215.796875 108.671875 -212.492188 99.453125 -205.890625 C 90.242188 -199.285156 82.90625 -190.03125 77.4375 -178.125 C 71.96875 -166.21875 68.910156 -152.109375 68.265625 -135.796875 L 171.03125 -135.796875 C 179.1875 -135.796875 183.265625 -139.382812 183.265625 -146.5625 C 183.265625 -168.25 178.570312 -185.207031 169.1875 -197.4375 C 159.8125 -209.675781 147.128906 -215.796875 131.140625 -215.796875 Z M 131.140625 -215.796875 "/></g></g></g><g fill="#171717" fill-opacity="1"><g transform="translate(1808.080512, 478.627315)"><g><path d="M 232.1875 -171.515625 C 232.1875 -163.847656 229.617188 -157.363281 224.484375 -152.0625 C 219.347656 -146.757812 212.617188 -144.109375 204.296875 -144.109375 C 195.984375 -144.109375 189.582031 -146.472656 185.09375 -151.203125 C 180.601562 -155.929688 178.359375 -162.128906 178.359375 -169.796875 L 178.359375 -177.140625 C 178.359375 -188.722656 174.363281 -198.0625 166.375 -205.15625 C 158.382812 -212.25 147.375 -215.796875 133.34375 -215.796875 C 120.78125 -215.796875 109.566406 -212.25 99.703125 -205.15625 C 89.835938 -198.0625 82.128906 -188.070312 76.578125 -175.1875 C 71.035156 -162.300781 68.265625 -147.050781 68.265625 -129.4375 C 68.265625 -108.226562 71.894531 -90.242188 79.15625 -75.484375 C 86.414062 -60.722656 96.445312 -49.546875 109.25 -41.953125 C 122.050781 -34.367188 136.609375 -30.578125 152.921875 -30.578125 C 168.410156 -30.578125 181.863281 -34.164062 193.28125 -41.34375 C 204.707031 -48.519531 212.785156 -57.898438 217.515625 -69.484375 C 221.265625 -74.378906 224.691406 -76.828125 227.796875 -76.828125 C 230.078125 -76.828125 231.664062 -75.890625 232.5625 -74.015625 C 233.457031 -72.140625 233.90625 -69.894531 233.90625 -67.28125 C 233.09375 -57.332031 230.15625 -47.953125 225.09375 -39.140625 C 220.039062 -30.335938 213.234375 -22.550781 204.671875 -15.78125 C 196.109375 -9.007812 186.078125 -3.75 174.578125 0 C 163.078125 3.75 150.554688 5.625 137.015625 5.625 C 119.722656 5.625 103.941406 2.894531 89.671875 -2.5625 C 75.398438 -8.03125 63.125 -15.898438 52.84375 -26.171875 C 42.570312 -36.453125 34.617188 -48.726562 28.984375 -63 C 23.359375 -77.269531 20.546875 -93.21875 20.546875 -110.84375 C 20.546875 -128.289062 23.359375 -144.554688 28.984375 -159.640625 C 34.617188 -174.734375 42.695312 -187.945312 53.21875 -199.28125 C 63.738281 -210.625 76.378906 -219.472656 91.140625 -225.828125 C 105.898438 -232.191406 122.414062 -235.375 140.6875 -235.375 C 159.601562 -235.375 175.867188 -232.394531 189.484375 -226.4375 C 203.109375 -220.488281 213.628906 -212.703125 221.046875 -203.078125 C 228.472656 -193.453125 232.1875 -182.929688 232.1875 -171.515625 Z M 232.1875 -171.515625 "/></g></g></g><g fill="#171717" fill-opacity="1"><g transform="translate(1989.875014, 478.627315)"><g><path d="M 34.75 -209.6875 L 22.015625 -213.109375 C 17.773438 -214.410156 14.878906 -215.753906 13.328125 -217.140625 C 11.785156 -218.523438 11.015625 -220.28125 11.015625 -222.40625 C 11.015625 -225.019531 11.910156 -226.976562 13.703125 -228.28125 C 15.492188 -229.582031 17.941406 -230.234375 21.046875 -230.234375 L 36.703125 -230.234375 C 40.941406 -230.234375 44.40625 -230.925781 47.09375 -232.3125 C 49.789062 -233.695312 52.195312 -236.265625 54.3125 -240.015625 L 73.640625 -275.5 C 76.085938 -279.414062 78.578125 -282.226562 81.109375 -283.9375 C 83.640625 -285.65625 86.207031 -286.515625 88.8125 -286.515625 C 94.851562 -286.515625 97.875 -283.085938 97.875 -276.234375 L 97.875 -230.234375 L 151.703125 -230.234375 C 158.710938 -230.234375 162.21875 -227.707031 162.21875 -222.65625 C 162.21875 -219.226562 160.460938 -216.367188 156.953125 -214.078125 C 153.453125 -211.796875 147.945312 -210.65625 140.4375 -210.65625 L 97.875 -210.65625 L 97.875 -60.671875 C 97.875 -49.421875 100.195312 -40.859375 104.84375 -34.984375 C 109.488281 -29.117188 115.890625 -26.1875 124.046875 -26.1875 C 130.078125 -26.1875 134.765625 -27.203125 138.109375 -29.234375 C 141.460938 -31.273438 144.113281 -33.597656 146.0625 -36.203125 C 148.019531 -38.816406 149.816406 -41.144531 151.453125 -43.1875 C 153.085938 -45.226562 155.207031 -46.25 157.8125 -46.25 C 162.050781 -46.25 164.171875 -43.390625 164.171875 -37.671875 C 164.171875 -30.660156 161.640625 -23.972656 156.578125 -17.609375 C 151.523438 -11.253906 144.550781 -6.035156 135.65625 -1.953125 C 126.769531 2.117188 116.539062 4.15625 104.96875 4.15625 C 87.019531 4.15625 72.703125 -0.53125 62.015625 -9.90625 C 51.335938 -19.289062 46 -33.441406 46 -52.359375 L 46 -195.5 C 46 -199.570312 45.179688 -202.664062 43.546875 -204.78125 C 41.921875 -206.90625 38.988281 -208.539062 34.75 -209.6875 Z M 34.75 -209.6875 "/></g></g></g><g fill="#171717" fill-opacity="1"><g transform="translate(2100.957886, 478.627315)"><g><path d="M 72.421875 -278.921875 C 61.816406 -278.921875 53.210938 -281.859375 46.609375 -287.734375 C 40.003906 -293.609375 36.703125 -301.113281 36.703125 -310.25 C 36.703125 -319.382812 40.003906 -326.84375 46.609375 -332.625 C 53.210938 -338.414062 61.816406 -341.3125 72.421875 -341.3125 C 83.191406 -341.3125 91.878906 -338.414062 98.484375 -332.625 C 105.085938 -326.84375 108.390625 -319.382812 108.390625 -310.25 C 108.390625 -301.113281 105.085938 -293.609375 98.484375 -287.734375 C 91.878906 -281.859375 83.191406 -278.921875 72.421875 -278.921875 Z M 103.984375 -220.453125 L 103.984375 -34.25 C 103.984375 -29.6875 104.796875 -26.300781 106.421875 -24.09375 C 108.054688 -21.894531 110.503906 -20.390625 113.765625 -19.578125 L 124.78125 -17.125 C 130.488281 -15.164062 133.34375 -12.226562 133.34375 -8.3125 C 133.34375 -2.769531 129.59375 0 122.09375 0 L 33.28125 0 C 25.9375 0 22.265625 -2.769531 22.265625 -8.3125 C 22.265625 -12.394531 25.117188 -15.25 30.828125 -16.875 L 42.328125 -19.578125 C 45.585938 -20.390625 48.03125 -21.894531 49.65625 -24.09375 C 51.289062 -26.300781 52.109375 -29.609375 52.109375 -34.015625 L 52.109375 -185.46875 C 52.109375 -192.3125 49.421875 -195.976562 44.046875 -196.46875 L 27.640625 -197.203125 C 22.265625 -198.179688 19.578125 -200.546875 19.578125 -204.296875 C 19.578125 -206.578125 20.3125 -208.367188 21.78125 -209.671875 C 23.25 -210.984375 25.773438 -212.375 29.359375 -213.84375 L 69.734375 -228.03125 C 74.953125 -229.988281 79.191406 -231.375 82.453125 -232.1875 C 85.710938 -233.007812 88.484375 -233.421875 90.765625 -233.421875 C 95.171875 -233.421875 98.472656 -232.273438 100.671875 -229.984375 C 102.878906 -227.703125 103.984375 -224.523438 103.984375 -220.453125 Z M 103.984375 -220.453125 "/></g></g></g><g fill="#171717" fill-opacity="1"><g transform="translate(2181.211784, 478.627315)"><g><path d="M 143.375 2.9375 L 126 2.9375 C 117.351562 2.9375 111.398438 -1.46875 108.140625 -10.28125 L 34.25 -194.265625 C 31.644531 -200.953125 29.40625 -205.316406 27.53125 -207.359375 C 25.65625 -209.398438 23.328125 -210.742188 20.546875 -211.390625 L 11.5 -213.109375 C 8.394531 -213.921875 6.191406 -215.0625 4.890625 -216.53125 C 3.585938 -218 2.9375 -219.796875 2.9375 -221.921875 C 2.9375 -227.460938 6.609375 -230.234375 13.953125 -230.234375 L 112.546875 -230.234375 C 115.972656 -230.234375 118.664062 -229.5 120.625 -228.03125 C 122.582031 -226.5625 123.5625 -224.601562 123.5625 -222.15625 C 123.5625 -219.875 122.867188 -218.039062 121.484375 -216.65625 C 120.097656 -215.269531 117.691406 -214.171875 114.265625 -213.359375 L 103.984375 -211.640625 C 95.992188 -210.335938 91.304688 -207.847656 89.921875 -204.171875 C 88.535156 -200.503906 89.632812 -193.859375 93.21875 -184.234375 L 150.71875 -36.453125 L 207.96875 -184.234375 C 211.71875 -193.859375 212.859375 -200.503906 211.390625 -204.171875 C 209.921875 -207.847656 205.109375 -210.335938 196.953125 -211.640625 L 186.921875 -213.359375 C 183.503906 -214.171875 181.097656 -215.269531 179.703125 -216.65625 C 178.316406 -218.039062 177.625 -219.875 177.625 -222.15625 C 177.625 -224.601562 178.601562 -226.5625 180.5625 -228.03125 C 182.519531 -229.5 185.210938 -230.234375 188.640625 -230.234375 L 256.90625 -230.234375 C 260.164062 -230.234375 262.773438 -229.5 264.734375 -228.03125 C 266.691406 -226.5625 267.671875 -224.523438 267.671875 -221.921875 C 267.671875 -219.796875 267.054688 -218.039062 265.828125 -216.65625 C 264.609375 -215.269531 262.285156 -214.171875 258.859375 -213.359375 L 249.8125 -211.890625 C 246.707031 -211.234375 243.972656 -209.191406 241.609375 -205.765625 C 239.242188 -202.335938 236.347656 -196.300781 232.921875 -187.65625 L 161 -9.046875 C 159.039062 -4.484375 156.59375 -1.347656 153.65625 0.359375 C 150.71875 2.078125 147.289062 2.9375 143.375 2.9375 Z M 143.375 2.9375 "/></g></g></g><g fill="#171717" fill-opacity="1"><g transform="translate(2383.803521, 478.627315)"><g><path d="M 25.203125 -50.890625 C 25.203125 -63.941406 29.113281 -75.441406 36.9375 -85.390625 C 44.769531 -95.335938 56.023438 -103.125 70.703125 -108.75 C 85.390625 -114.382812 102.925781 -117.203125 123.3125 -117.203125 C 131.957031 -117.203125 140.03125 -116.585938 147.53125 -115.359375 C 155.039062 -114.140625 161.894531 -112.46875 168.09375 -110.34375 L 168.09375 -176.40625 C 168.09375 -190.4375 164.539062 -201.203125 157.4375 -208.703125 C 150.34375 -216.203125 140.273438 -219.953125 127.234375 -219.953125 C 114.835938 -219.953125 105.539062 -217.425781 99.34375 -212.375 C 93.144531 -207.320312 90.046875 -201.207031 90.046875 -194.03125 L 90.046875 -174.703125 C 90.046875 -166.867188 87.472656 -160.832031 82.328125 -156.59375 C 77.191406 -152.351562 70.054688 -150.234375 60.921875 -150.234375 C 52.929688 -150.234375 46.816406 -152.269531 42.578125 -156.34375 C 38.335938 -160.425781 36.21875 -165.972656 36.21875 -172.984375 C 36.21875 -180.484375 38.457031 -187.90625 42.9375 -195.25 C 47.425781 -202.59375 53.953125 -209.28125 62.515625 -215.3125 C 71.078125 -221.34375 81.597656 -226.148438 94.078125 -229.734375 C 106.554688 -233.328125 120.867188 -235.125 137.015625 -235.125 C 164.742188 -235.125 185.414062 -229.171875 199.03125 -217.265625 C 212.65625 -205.359375 219.46875 -189.289062 219.46875 -169.0625 L 219.46875 -36.703125 C 219.46875 -26.585938 223.300781 -21.53125 230.96875 -21.53125 C 235.050781 -21.53125 237.945312 -22.46875 239.65625 -24.34375 C 241.363281 -26.21875 242.875 -28.050781 244.1875 -29.84375 C 245 -30.820312 245.851562 -31.675781 246.75 -32.40625 C 247.644531 -33.144531 248.742188 -33.515625 250.046875 -33.515625 C 253.472656 -33.515625 255.1875 -31.234375 255.1875 -26.671875 C 255.1875 -21.941406 253.597656 -17.085938 250.421875 -12.109375 C 247.242188 -7.140625 242.515625 -2.941406 236.234375 0.484375 C 229.953125 3.910156 222.160156 5.625 212.859375 5.625 C 201.117188 5.625 191.617188 3.054688 184.359375 -2.078125 C 177.097656 -7.210938 172.898438 -14.757812 171.765625 -24.71875 C 161.972656 -14.925781 150.429688 -7.421875 137.140625 -2.203125 C 123.847656 3.015625 109.941406 5.625 95.421875 5.625 C 81.554688 5.625 69.363281 3.300781 58.84375 -1.34375 C 48.320312 -5.988281 40.082031 -12.550781 34.125 -21.03125 C 28.175781 -29.519531 25.203125 -39.472656 25.203125 -50.890625 Z M 78.78125 -59.453125 C 78.78125 -46.398438 82.53125 -36.367188 90.03125 -29.359375 C 97.539062 -22.347656 107.003906 -18.84375 118.421875 -18.84375 C 137.335938 -18.84375 153.894531 -25.53125 168.09375 -38.90625 L 168.09375 -95.171875 C 162.382812 -97.460938 156.46875 -99.257812 150.34375 -100.5625 C 144.226562 -101.863281 137.582031 -102.515625 130.40625 -102.515625 C 114.257812 -102.515625 101.617188 -98.679688 92.484375 -91.015625 C 83.347656 -83.347656 78.78125 -72.828125 78.78125 -59.453125 Z M 78.78125 -59.453125 "/></g></g></g></g></g></svg>